<?xml version="1.0" encoding="UTF-8" standalone="no"?>
<!-- Created with Inkscape (http://www.inkscape.org/) -->

<svg
   version="1.1"
   id="svg1"
   width="340.04269"
   height="102.59952"
   viewBox="0 0 340.04269 102.59952"
   xmlns="http://www.w3.org/2000/svg"
   xmlns:svg="http://www.w3.org/2000/svg">
  <defs
     id="defs1" />
  <g
     id="g1"
     transform="translate(-165.99733,-248.93339)">
    <g
       id="group-R5">
      <path
         id="path21"
         d="m 3755.22,14307.8 h -6.86 l -0.18,12.5 h 7.04 c 5.38,0 7.31,-2.3 7.31,-6 -0.02,-0.9 -0.22,-1.8 -0.59,-2.6 -0.38,-0.9 -0.94,-1.6 -1.63,-2.3 -0.67,-0.6 -1.49,-1 -2.37,-1.3 -0.87,-0.3 -1.8,-0.4 -2.72,-0.3 z m 14.43,7.1 c 0,5.9 -3.48,11.5 -13.81,11.5 l -14.18,0.1 v -39.9 h 6.35 v 15.5 h 8.09 l 7.81,-15.5 h 7.9 l -9.28,17.4 c 2.12,0.9 3.93,2.4 5.19,4.4 1.26,1.9 1.94,4.2 1.93,6.5 z m -42.01,-27.5 c -3.71,5.4 -5.72,11.8 -5.79,18.4 -0.2,4.5 0.53,8.9 2.14,13.1 1.6,4.1 4.05,7.9 7.18,11.1 3.14,3.1 6.89,5.6 11.03,7.3 4.13,1.6 8.58,2.4 13.02,2.2 6.58,0 13.03,-1.9 18.5,-5.6 5.49,-3.6 9.76,-8.8 12.3,-14.9 2.54,-6.1 3.22,-12.8 1.95,-19.2 -1.26,-6.5 -4.39,-12.4 -9.04,-17.1 -4.63,-4.7 -10.53,-7.9 -16.99,-9.2 -6.44,-1.4 -13.15,-0.7 -19.25,1.7 -6.1,2.5 -11.33,6.7 -15.05,12.2 z m 60.83,-3.9 c 4.43,6.6 6.79,14.4 6.81,22.3 0.17,5.3 -0.74,10.6 -2.69,15.6 -1.95,4.9 -4.91,9.4 -8.66,13.2 -3.75,3.7 -8.23,6.7 -13.16,8.7 -4.94,2 -10.23,2.9 -15.55,2.8 -7.93,0 -15.71,-2.4 -22.33,-6.8 -6.61,-4.4 -11.76,-10.6 -14.82,-18 -3.04,-7.3 -3.86,-15.4 -2.34,-23.1 1.54,-7.8 5.35,-15 10.95,-20.6 5.6,-5.7 12.75,-9.5 20.53,-11.1 7.8,-1.5 15.87,-0.7 23.2,2.3 7.35,3 13.63,8.1 18.06,14.7 z m -168.46,-53.1 -79.27,-169.2 h -34.23 l -78.22,167.7 v -176.2 h -58.14 v 289.7 h 57.97 l 97.34,-209 94.11,209 h 58.49 v -289.6 h -58.05 z m -493.37,-73.1 39.54,115.9 40.41,-115.9 z m -35.63,-104.6 19.12,56.3 113.06,0.1 19.64,-56.3 h 65.71 l -111.69,289.6 h -60.83 l -108.62,-289.7 z m -250.9,237.6 v -65.3 h 116.11 v -52.1 h -116.11 v -68 h 134.7 v -52.2 h -195.36 v 289.7 h 195.36 v -52.1 z m -215.61,-237.6 v 237.6 h 87.86 v 52.1 h -236.55 v -52.1 h 87.86 v -237.6 z m -201.36,266.2 -26.07,-45.2 c -20.77,14 -45.16,21.7 -70.22,22.1 -26.85,0 -43.45,-11 -43.45,-30.9 0,-20.5 21.11,-27.7 54.22,-38.9 6,-2.1 12.39,-4.2 19.13,-6.7 47.1,-16.6 74.13,-36.2 74.13,-79.4 0,-59 -46.41,-92.1 -112.98,-92.1 -35.7,-0.1 -70.81,9.1 -101.85,26.7 l 18.77,50.2 c 24.66,-13 52.05,-20.1 79.95,-20.6 35.2,0 52.14,13 52.14,32.2 0,20.3 -21.86,27.5 -57.83,39.3 -2.85,0.9 -5.8,1.9 -8.82,2.9 -47.02,15.6 -79.52,36.2 -79.52,84 0,53.8 43.45,84.8 105.16,84.8 34.58,0.9 68.59,-9 97.24,-28.4 z m -727.93,18 c -7.97,-11.9 -12.23,-26 -12.23,-40.3 l -0.43,0.2 c -0.03,-9.6 1.85,-19.1 5.51,-27.9 3.66,-8.9 9.04,-16.9 15.83,-23.7 6.79,-6.8 14.85,-12.1 23.71,-15.8 8.87,-3.6 18.36,-5.4 27.94,-5.4 14.36,0 28.39,4.3 40.32,12.3 11.93,7.9 21.23,19.3 26.73,32.5 5.49,13.3 6.93,27.9 4.13,42 -2.8,14 -9.72,27 -19.86,37.1 -10.15,10.2 -23.08,17.1 -37.16,19.9 -14.07,2.8 -28.66,1.3 -41.92,-4.2 -13.26,-5.4 -24.6,-14.7 -32.57,-26.7 z m 140.55,13.4 c 10.61,-15.9 16.27,-34.6 16.25,-53.7 -0.05,-25.6 -10.23,-50.1 -28.33,-68.2 -18.1,-18.1 -42.63,-28.3 -68.22,-28.3 -19.12,-0.1 -37.82,5.6 -53.72,16.2 -15.91,10.6 -28.31,25.7 -35.63,43.4 -7.33,17.6 -9.25,37.1 -5.52,55.8 3.72,18.8 12.93,36 26.45,49.5 13.52,13.5 30.75,22.8 49.5,26.5 18.75,3.7 38.19,1.8 55.85,-5.6 17.67,-7.3 32.76,-19.7 43.37,-35.6 z m -349.8,-351.7 -47.27,19.6 c 6.85,-14.3 17.72,-26.3 31.26,-34.5 13.54,-8.2 29.18,-12.3 45.01,-11.8 15.83,0.5 31.17,5.7 44.13,14.8 12.97,9.1 23.02,21.7 28.91,36.4 5.89,14.7 7.38,30.8 4.28,46.3 -3.1,15.6 -10.66,29.9 -21.74,41.2 -11.09,11.3 -25.22,19.1 -40.69,22.6 -15.46,3.4 -31.59,2.2 -46.41,-3.4 l 48.76,-20.1 c 14.73,-6.2 26.42,-17.9 32.49,-32.6 6.08,-14.8 6.05,-31.4 -0.08,-46.1 -6.13,-14.7 -17.86,-26.4 -32.61,-32.5 -14.75,-6.1 -31.31,-6 -46.04,0.1 z m 142.18,583.4 c -96.61,0 -189.68,-36.4 -260.68,-101.9 -71,-65.6 -114.73,-155.4 -122.48,-251.7 l 206.05,-85.3 c 18.03,12.4 39.4,19 61.27,19 h 6.08 l 91.6,132.8 v 1.9 c 0.1,28.6 8.7,56.6 24.7,80.4 16,23.8 38.68,42.3 65.2,53.2 26.51,10.9 55.66,13.7 83.76,8 28.1,-5.6 53.89,-19.5 74.13,-39.8 20.23,-20.3 33.99,-46.1 39.55,-74.2 5.55,-28.2 2.65,-57.3 -8.34,-83.8 -11,-26.4 -29.59,-49.1 -53.43,-65 -23.84,-15.9 -51.86,-24.4 -80.53,-24.4 h -3.3 l -130.36,-93.2 v -5.2 c 0.07,-27 -9.93,-53.1 -28.05,-73.2 -18.12,-20 -43.07,-32.6 -69.97,-35.3 -26.9,-2.7 -53.84,4.8 -75.56,20.8 -21.72,16.1 -36.67,39.8 -41.94,66.3 l -147.31,60.8 c 19.5,-68.8 57.81,-130.8 110.63,-179.1 52.81,-48.2 118.03,-80.8 188.33,-94 70.3,-13.2 142.89,-6.5 209.6,19.3 66.72,25.8 124.91,69.7 168.05,126.8 43.13,57 69.49,125 76.12,196.2 6.62,71.2 -6.75,142.9 -38.62,206.9 -31.87,64 -80.98,117.9 -141.79,155.6 -60.81,37.6 -130.92,57.6 -202.45,57.6 l -0.26,0.5"
         style="fill:#211d1d;fill-opacity:1;fill-rule:nonzero;stroke:none"
         transform="matrix(0.13333333,0,0,-0.13333333,0,2193.2)" />
    </g>
  </g>
</svg>
